<svg xmlns="http://www.w3.org/2000/svg" xmlns:xlink="http://www.w3.org/1999/xlink" viewBox="-2520 -452 64 64">
  <defs>
    <style>
      .cls-1 {
        clip-path: url(#clip-Add);
      }

      .cls-2 {
        fill: #5584ff;
      }

      .cls-3 {
        fill: #fff;
      }
    </style>
    <clipPath id="clip-Add">
      <rect x="-2520" y="-452" width="64" height="64"/>
    </clipPath>
  </defs>
  <g id="Add" class="cls-1">
    <rect class="cls-3" x="-2520" y="-452" width="64" height="64"/>
    <g id="Group_5807" data-name="Group 5807" transform="translate(-2833.853 -1717.519)">
      <path id="Path_672" data-name="Path 672" class="cls-2" d="M31.993,63.757A31.7,31.7,0,0,0,63.757,31.993,32.251,32.251,0,0,0,31.765,0,31.7,31.7,0,0,0,0,31.764,32.251,32.251,0,0,0,31.993,63.757ZM31.78,4.383A27.791,27.791,0,0,1,59.374,31.977a27.313,27.313,0,0,1-27.4,27.4A27.79,27.79,0,0,1,4.383,31.78,27.313,27.313,0,0,1,31.78,4.383Z" transform="translate(300.853 1297.603) rotate(-45)"/>
      <path id="Path_673" data-name="Path 673" class="cls-2" d="M.677,24.5a2.087,2.087,0,0,0,1.6.8,2.053,2.053,0,0,0,1.591-.791L12.6,15.777l8.8,8.8a2.087,2.087,0,0,0,1.6.8,2.053,2.053,0,0,0,1.591-.791,2.424,2.424,0,0,0-.011-3.188l-8.8-8.8,8.735-8.735A2.425,2.425,0,0,0,24.5.677,2.425,2.425,0,0,0,21.313.666L12.578,9.4,3.78.6A2.425,2.425,0,0,0,.592.592,2.425,2.425,0,0,0,.6,3.78l8.8,8.8L.666,21.313A2.424,2.424,0,0,0,.677,24.5Z" transform="translate(327.85 1297.322) rotate(-45)"/>
    </g>
  </g>
</svg>
