<svg xmlns="http://www.w3.org/2000/svg" xmlns:xlink="http://www.w3.org/1999/xlink" viewBox="-2376 -308 64 64">
  <defs>
    <style>
      .cls-1 {
        clip-path: url(#clip-Alert);
      }

      .cls-2 {
        fill: #ff4e00;
      }

      .cls-3 {
        fill: #fff;
      }
    </style>
    <clipPath id="clip-Alert">
      <rect x="-2376" y="-308" width="64" height="64"/>
    </clipPath>
  </defs>
  <g id="Alert" class="cls-1">
    <rect class="cls-3" x="-2376" y="-308" width="64" height="64"/>
    <g id="Group_5798" data-name="Group 5798" transform="translate(-3088 -2093)">
      <path id="Path_826" data-name="Path 826" class="cls-2" d="M64.932,53.772,39.938,10.522a6.8,6.8,0,0,0-11.766,0L2.97,54.133A6.786,6.786,0,0,0,8.853,64.312H59.3a6.787,6.787,0,0,0,5.631-10.54Zm-5.66,7.205H8.853A3.452,3.452,0,0,1,5.861,55.8l25.2-43.61a3.456,3.456,0,0,1,5.984,0l25.021,43.3c.02.035.042.069.065.1a3.453,3.453,0,0,1-2.862,5.387ZM30.452,41.156a3.5,3.5,0,0,0,3.611,3.523,3.615,3.615,0,0,0,3.611-3.538l.668-15.56c0-.024,0-.047,0-.071a4.28,4.28,0,0,0-8.561,0c0,.024,0,.047,0,.071Zm3.611-16.588a.942.942,0,0,1,.942.914L34.34,40.991c-.005.115-.017.353-.277.353a.559.559,0,0,1-.208-.033A.644.644,0,0,1,33.785,41L33.12,25.482A.943.943,0,0,1,34.062,24.568Zm0,21.637a5,5,0,1,0,5.007,5,5.015,5.015,0,0,0-5.007-5Zm1.171,6.189a1.745,1.745,0,0,1-2.354-.005,1.673,1.673,0,0,1,0-2.358,1.71,1.71,0,0,1,1.183-.492,1.666,1.666,0,0,1,1.171,2.854Z" transform="translate(709.936 1780.871)"/>
    </g>
  </g>
</svg>
