<svg xmlns="http://www.w3.org/2000/svg" xmlns:xlink="http://www.w3.org/1999/xlink" viewBox="-2520 -380 64 64">
  <defs>
    <style>
      .cls-1 {
        clip-path: url(#clip-congradulate);
      }

      .cls-2 {
        fill: #5584ff;
      }

      .cls-3 {
        fill: #fff;
      }
    </style>
    <clipPath id="clip-congradulate">
      <rect x="-2520" y="-380" width="64" height="64"/>
    </clipPath>
  </defs>
  <g id="congradulate" class="cls-1">
    <rect class="cls-3" x="-2520" y="-380" width="64" height="64"/>
    <g id="Group_5806" data-name="Group 5806" transform="translate(-3369.2 -2268.9)">
      <g id="Group_1262" data-name="Group 1262" transform="translate(851.2 1888.9)">
        <path id="Path_759" data-name="Path 759" class="cls-2" d="M851.2,1909.831v18.918a9.362,9.362,0,0,0,9.258,9.258h5.635v5.635a9.363,9.363,0,0,0,9.258,9.258h20.931a11.436,11.436,0,0,0,7.648-3.623h0l6.44-10.062a6.092,6.092,0,0,0-.8-7.648c-2.415-2.013-5.635-2.013-7.648.4l-1.61,1.61v-20.528a5.5,5.5,0,0,0-5.635-5.635,3.017,3.017,0,0,0-2.013.4,5.684,5.684,0,0,0-5.635-4.025,3.631,3.631,0,0,0-2.012.4v-6.038a5.5,5.5,0,0,0-5.635-5.635,3.018,3.018,0,0,0-2.013.4,5.684,5.684,0,0,0-5.635-4.025,6.054,6.054,0,0,0-5.635,4.025,3.631,3.631,0,0,0-2.012-.4,5.5,5.5,0,0,0-5.635,5.635v6.038a3.02,3.02,0,0,0-2.013-.4A6.1,6.1,0,0,0,851.2,1909.831Zm30.188-1.61a3.013,3.013,0,0,0-2.012-.4,3.626,3.626,0,0,0-2.013.4v-9.661a2.013,2.013,0,1,1,4.025,0Zm-11.27,16.5a2.013,2.013,0,0,1,4.025,0v3.623a2.012,2.012,0,1,0,4.025,0v-15.3a2.013,2.013,0,1,1,4.025,0v15.3a2.013,2.013,0,1,0,4.025,0v-19.32a1.842,1.842,0,0,1,2.012-1.611,1.9,1.9,0,0,1,2.012,2.013v18.918a2.013,2.013,0,0,0,4.025,0v-15.3a2.013,2.013,0,0,1,4.025,0v24.956c0,.8.4,1.61,1.207,1.61a3.015,3.015,0,0,0,2.013-.4l4.83-4.83c.806-.806,2.013-.806,2.415,0a1.9,1.9,0,0,1,.4,2.415s.4-.4-6.44,10.063c-1.207,1.208-2.818,2.416-4.428,2.416H877.363a5.5,5.5,0,0,1-5.635-5.636v-18.917Zm-14.893-14.893a2.013,2.013,0,1,1,4.025,0v3.623a1.9,1.9,0,0,0,2.012,2.012,2.061,2.061,0,0,0,1.762-.959,1.846,1.846,0,0,0,.25-1.053v-15.3a2.012,2.012,0,0,1,4.025,0v15.3a2.013,2.013,0,0,0,4.025,0v-18.918a2.013,2.013,0,1,1,4.025,0v24.956a3.017,3.017,0,0,0-2.013-.4,5.5,5.5,0,0,0-5.635,5.635v9.259h-5.635a5.5,5.5,0,0,1-5.635-5.636v-18.516Z" transform="translate(-851.199 -1888.9)"/>
      </g>
    </g>
  </g>
</svg>
