<svg xmlns="http://www.w3.org/2000/svg" xmlns:xlink="http://www.w3.org/1999/xlink" viewBox="-2448 -380 64 64">
  <defs>
    <style>
      .cls-1 {
        clip-path: url(#clip-Download);
      }

      .cls-2 {
        fill: #5584ff;
      }

      .cls-3 {
        fill: #fff;
      }
    </style>
    <clipPath id="clip-Download">
      <rect x="-2448" y="-380" width="64" height="64"/>
    </clipPath>
  </defs>
  <g id="Download" class="cls-1">
    <rect class="cls-3" x="-2448" y="-380" width="64" height="64"/>
    <g id="Group_5800" data-name="Group 5800" transform="translate(-3629 -1344)">
      <path id="Path_225" data-name="Path 225" class="cls-2" d="M33.7,61.956a2.18,2.18,0,0,0,.731.5h.052a2.193,2.193,0,0,0,1.671,0h.052a2.18,2.18,0,0,0,.731-.5L66.647,30.59a2.456,2.456,0,0,0,0-3.363,2.156,2.156,0,0,0-3.185,0L37.512,54.514V8.87a2.248,2.248,0,1,0-4.49,0v45.7L7.176,27.227a2.156,2.156,0,0,0-3.185,0,2.456,2.456,0,0,0,0,3.363Z" transform="translate(1177.687 957.345)"/>
      <path id="Path_226" data-name="Path 226" class="cls-2" d="M5.545,118.741H64.964a2.374,2.374,0,0,0,0-4.741H5.545A2.293,2.293,0,0,0,3.3,116.37a2.328,2.328,0,0,0,2.245,2.37Z" transform="translate(1177.699 909.104)"/>
    </g>
  </g>
</svg>
