<svg xmlns="http://www.w3.org/2000/svg" xmlns:xlink="http://www.w3.org/1999/xlink" viewBox="-2592 -236 64 64">
  <defs>
    <style>
      .cls-1 {
        clip-path: url(#clip-Down_Arrow);
      }

      .cls-2 {
        fill: #ff4e00;
      }

      .cls-3 {
        fill: #fff;
      }
    </style>
    <clipPath id="clip-Down_Arrow">
      <rect x="-2592" y="-236" width="64" height="64"/>
    </clipPath>
  </defs>
  <g id="Down_Arrow" data-name="Down Arrow" class="cls-1">
    <rect class="cls-3" x="-2592" y="-236" width="64" height="64"/>
    <g id="Group_5793" data-name="Group 5793" transform="translate(-4080 -1180)">
      <path id="Path_1033" data-name="Path 1033" class="cls-2" d="M63.2,30.4,33.5.8a2.01,2.01,0,0,0-3.21,0L.6,30.4a2.427,2.427,0,0,0,0,3.2,2.087,2.087,0,0,0,1.6.8,2.087,2.087,0,0,0,1.6-.8l26.082-26v54A2.309,2.309,0,0,0,32.3,64a2.125,2.125,0,0,0,2.407-2.4V7.6l26.082,26a2.446,2.446,0,0,0,3.21,0C64,32.8,64,31.2,63.2,30.4Z" transform="translate(1552 1008) rotate(180)"/>
    </g>
  </g>
</svg>
