<svg xmlns="http://www.w3.org/2000/svg" xmlns:xlink="http://www.w3.org/1999/xlink" viewBox="-2468 -584 104 104">
  <defs>
    <style>
      .cls-1 {
        clip-path: url(#clip-Happy_emoji);
      }

      .cls-2 {
        fill: #fddf6d;
      }

      .cls-3 {
        fill: #fcc56b;
      }

      .cls-4 {
        fill: #7f184c;
      }

      .cls-5 {
        fill: #fff;
      }

      .cls-6 {
        fill: #e6e6e6;
      }

      .cls-7 {
        fill: #f9a880;
      }

      .cls-8 {
        fill: #fceb88;
      }
    </style>
    <clipPath id="clip-Happy_emoji">
      <rect x="-2468" y="-584" width="104" height="104"/>
    </clipPath>
  </defs>
  <g id="Happy_emoji" data-name="Happy emoji" class="cls-1">
    <rect class="cls-5" x="-2468" y="-584" width="104" height="104"/>
    <g id="Group_5788" data-name="Group 5788" transform="translate(-4496.148 -1378.547)">
      <circle id="Ellipse_164" data-name="Ellipse 164" class="cls-2" cx="51.946" cy="51.946" r="51.946" transform="translate(2028.257 794.547)"/>
      <path id="Path_1034" data-name="Path 1034" class="cls-3" d="M1584.992,654.381a51.955,51.955,0,0,1-34.739-90.581,51.966,51.966,0,1,0,58.331,84.953A51.957,51.957,0,0,1,1584.992,654.381Z" transform="translate(506.357 236.483)"/>
      <g id="Group_1652" data-name="Group 1652" transform="translate(2061.697 821.169)">
        <path id="Path_1017" data-name="Path 1017" class="cls-4" d="M1569.25,594.463a2.171,2.171,0,0,1-2.164-2.164,4.978,4.978,0,1,0-9.956,0,2.164,2.164,0,1,1-4.329,0,9.2,9.2,0,0,1,18.4,0A1.835,1.835,0,0,1,1569.25,594.463Z" transform="translate(-1552.8 -583.1)"/>
        <path id="Path_1018" data-name="Path 1018" class="cls-4" d="M1602.25,594.463a2.171,2.171,0,0,1-2.165-2.164,4.978,4.978,0,1,0-9.956,0,2.164,2.164,0,1,1-4.329,0,9.2,9.2,0,0,1,18.4,0A1.835,1.835,0,0,1,1602.25,594.463Z" transform="translate(-1550.087 -583.1)"/>
      </g>
      <path id="Path_1035" data-name="Path 1035" class="cls-5" d="M1578.963,643.663h0A27.111,27.111,0,0,1,1551.8,616.5h54.327A27.111,27.111,0,0,1,1578.963,643.663Z" transform="translate(508.815 240.815)"/>
      <path id="Path_1036" data-name="Path 1036" class="cls-6" d="M1554.3,627.4a27.056,27.056,0,0,0,2.489,4.221h43.938a20.624,20.624,0,0,0,2.489-4.221Z" transform="translate(509.021 241.711)"/>
      <g id="Group_1650" data-name="Group 1650" transform="translate(2050.875 843.354)">
        <path id="Path_1021" data-name="Path 1021" class="cls-7" d="M1549.834,603.6a7.02,7.02,0,0,0-7.034,7.034h13.96A6.862,6.862,0,0,0,1549.834,603.6Z" transform="translate(-1542.8 -603.6)"/>
        <path id="Path_1022" data-name="Path 1022" class="cls-7" d="M1606.134,603.6a7.02,7.02,0,0,0-7.034,7.034h13.96A6.862,6.862,0,0,0,1606.134,603.6Z" transform="translate(-1538.172 -603.6)"/>
      </g>
      <ellipse id="Ellipse_165" data-name="Ellipse 165" class="cls-8" cx="6.06" cy="10.822" rx="6.06" ry="10.822" transform="translate(2075.674 812.326) rotate(-74.199)"/>
    </g>
  </g>
</svg>
