<svg xmlns="http://www.w3.org/2000/svg" xmlns:xlink="http://www.w3.org/1999/xlink" viewBox="-2592 -380 64 64">
  <defs>
    <style>
      .cls-1 {
        clip-path: url(#clip-mail);
      }

      .cls-2 {
        fill: #5584ff;
      }

      .cls-3 {
        fill: #fff;
      }
    </style>
    <clipPath id="clip-mail">
      <rect x="-2592" y="-380" width="64" height="64"/>
    </clipPath>
  </defs>
  <g id="mail" class="cls-1">
    <rect class="cls-3" x="-2592" y="-380" width="64" height="64"/>
    <path id="Path_2522" data-name="Path 2522" class="cls-2" d="M6.455,67.823a.418.418,0,0,0,.055.221c0,.055.055.166.055.221s.055.111.055.221c.055.055.055.111.111.221.055.055.055.111.111.166s.111.111.111.166l.166.166.055.055a.054.054,0,0,1,.055.055,1.317,1.317,0,0,0,.608.332c.055,0,.055,0,.111.055a2.774,2.774,0,0,0,.663.111H68.244a2.774,2.774,0,0,0,.663-.111c.055,0,.055,0,.111-.055a6.028,6.028,0,0,0,.608-.332.054.054,0,0,0,.055-.055l.055-.055.166-.166c.055-.055.111-.111.111-.166.055-.055.055-.111.111-.166s.055-.111.111-.221c.055-.055.055-.111.055-.221,0-.055.055-.166.055-.221s.055-.111.055-.221V16.866A2.241,2.241,0,0,0,68.134,14.6H8.666A2.241,2.241,0,0,0,6.4,16.866V67.6c.055.055.055.111.055.221Zm7.074-2.6L30.276,45.218l6.964,4.864a2.282,2.282,0,0,0,2.542,0l6.964-4.864L63.491,65.225H13.53Zm52.56-3.979L50.448,42.621,66.034,31.733V61.246Zm-55.1-42.114h55.1v7.13L38.566,45.439,10.987,26.261v-7.13Zm0,12.6L26.573,42.621,10.987,61.246Z" transform="translate(-2598.4 -390.6)"/>
  </g>
</svg>
