<svg xmlns="http://www.w3.org/2000/svg" xmlns:xlink="http://www.w3.org/1999/xlink" viewBox="-2344 -584 104 104">
  <defs>
    <style>
      .cls-1 {
        clip-path: url(#clip-Meh_Emoji);
      }

      .cls-2 {
        fill: #fddf6d;
      }

      .cls-3 {
        fill: #fcc56b;
      }

      .cls-4 {
        fill: #fff;
      }

      .cls-5 {
        fill: #f9a880;
      }

      .cls-6 {
        fill: #7f184c;
      }

      .cls-7 {
        fill: #fceb88;
      }
    </style>
    <clipPath id="clip-Meh_Emoji">
      <rect x="-2344" y="-584" width="104" height="104"/>
    </clipPath>
  </defs>
  <g id="Meh_Emoji" data-name="Meh Emoji" class="cls-1">
    <rect class="cls-4" x="-2344" y="-584" width="104" height="104"/>
    <g id="Group_5791" data-name="Group 5791" transform="translate(-303 -1364)">
      <ellipse id="Ellipse_433" data-name="Ellipse 433" class="cls-2" cx="52" cy="52" rx="52" ry="52" transform="translate(-2041 780)"/>
      <path id="Path_2515" data-name="Path 2515" class="cls-3" d="M73.15,127.493a52,52,0,0,1-34.783-90.65A52,52,0,1,0,96.79,121.821,51.775,51.775,0,0,1,73.15,127.493Z" transform="translate(-2051.007 748.83)"/>
      <g id="Group_5789" data-name="Group 5789" transform="translate(-2004.403 809.557)">
        <ellipse id="Ellipse_326" data-name="Ellipse 326" class="cls-4" cx="6.346" cy="6.346" rx="6.346" ry="6.346" transform="translate(0 0)"/>
        <ellipse id="Ellipse_327" data-name="Ellipse 327" class="cls-4" cx="6.346" cy="6.346" rx="6.346" ry="6.346" transform="translate(35.731 0)"/>
      </g>
      <g id="Group_5790" data-name="Group 5790" transform="translate(-2018.339 827.843)">
        <path id="Path_1208" data-name="Path 1208" class="cls-5" d="M124.2,240.771a6.993,6.993,0,0,0-6.992,6.993h13.985A6.992,6.992,0,0,0,124.2,240.771Z" transform="translate(-117.208 -239.834)"/>
        <path id="Path_1209" data-name="Path 1209" class="cls-5" d="M412.727,236.338a6.993,6.993,0,0,0-6.992,6.992H419.72A6.992,6.992,0,0,0,412.727,236.338Z" transform="translate(-344.744 -236.338)"/>
      </g>
      <path id="Path_2517" data-name="Path 2517" class="cls-6" d="M245.563,339.389H207.387a2.115,2.115,0,1,1,0-4.231h38.176a2.115,2.115,0,1,1,0,4.231Z" transform="translate(-2204.995 513.575)"/>
      <path id="Path_2516" data-name="Path 2516" class="cls-6" d="M190.058,148.289a8.462,8.462,0,1,0-8.462,8.462A8.471,8.471,0,0,0,190.058,148.289Zm-12.693,0a4.231,4.231,0,1,1,4.231,4.231A4.236,4.236,0,0,1,177.366,148.289Z" transform="translate(-2179.652 667.615)"/>
      <path id="Path_2519" data-name="Path 2519" class="cls-6" d="M359.081,148.289a8.462,8.462,0,1,0-8.462,8.462A8.471,8.471,0,0,0,359.081,148.289Zm-12.693,0a4.231,4.231,0,1,1,4.231,4.231A4.236,4.236,0,0,1,346.389,148.289Z" transform="translate(-2312.945 667.615)"/>
      <path id="Path_2518" data-name="Path 2518" class="cls-6" d="M205.272,337.274a2.115,2.115,0,0,0,2.115,2.115h38.176a2.115,2.115,0,1,0,0-4.231H207.387A2.115,2.115,0,0,0,205.272,337.274Z" transform="translate(-2204.995 513.574)"/>
      <ellipse id="Ellipse_434" data-name="Ellipse 434" class="cls-7" cx="6.06" cy="10.822" rx="6.06" ry="10.822" transform="translate(-1987.475 798.106) rotate(-74.199)"/>
    </g>
  </g>
</svg>
