<svg xmlns="http://www.w3.org/2000/svg" xmlns:xlink="http://www.w3.org/1999/xlink" viewBox="-2592 -308 64 64">
  <defs>
    <style>
      .cls-1 {
        clip-path: url(#clip-People);
      }

      .cls-2 {
        fill: #f77f6c;
      }

      .cls-3 {
        fill: #5584ff;
      }

      .cls-4 {
        fill: #ffd630;
      }

      .cls-5 {
        fill: #fff;
      }
    </style>
    <clipPath id="clip-People">
      <rect x="-2592" y="-308" width="64" height="64"/>
    </clipPath>
  </defs>
  <g id="People" class="cls-1">
    <rect class="cls-5" x="-2592" y="-308" width="64" height="64"/>
    <g id="Group_5795" data-name="Group 5795" transform="translate(-3073.6 -1403)">
      <g id="Group_1120" data-name="Group 1120" transform="translate(481.6 1095)">
        <path id="Path_691" data-name="Path 691" class="cls-2" d="M534.114,1142.409,523.5,1137.1a4.162,4.162,0,0,1-2.2-3.661v-4.21a7.752,7.752,0,0,0,.915-1.281,22.26,22.26,0,0,0,3.295-6.59,3.352,3.352,0,0,0,2.38-3.112v-4.393a2.951,2.951,0,0,0-1.1-2.379v-6.407S528.073,1095,514.528,1095s-12.264,10.068-12.264,10.068v6.407a2.951,2.951,0,0,0-1.1,2.379v4.393a3.227,3.227,0,0,0,1.464,2.746,21.822,21.822,0,0,0,4.027,8.237v4.027a3.59,3.59,0,0,1-2.2,3.478l-9.884,5.491A8.853,8.853,0,0,0,490,1150.1v3.661h48.873v-3.3A8.28,8.28,0,0,0,534.114,1142.409Z" transform="translate(-474.624 -1095)"/>
        <path id="Path_692" data-name="Path 692" class="cls-3" d="M501.735,1138.755l6.59-3.661h0l3.295-1.83a4.1,4.1,0,0,0,2.2-3.478v-4.027a42.023,42.023,0,0,1-2.38-3.661h0c-.183-.366-.366-.549-.366-.915V1121a2.6,2.6,0,0,1-.366-1.1h0c-.183-.366-.183-.732-.366-.915v-.366c-.183-.366-.183-.732-.366-1.1a3.227,3.227,0,0,1-1.464-2.746v-4.393a2.952,2.952,0,0,1,1.1-2.38v-6.224a12.168,12.168,0,0,0-7.871-2.38c-10.617,0-11.166,8.969-11.166,8.969v5.491a3.191,3.191,0,0,0-1.1,2.2v3.844a2.858,2.858,0,0,0,1.281,2.38,14.964,14.964,0,0,0,4.21,7.139v3.478a3.775,3.775,0,0,1-1.831,3.112l-7.5,4.759a7.565,7.565,0,0,0-4.027,6.773v3.112h15.559v-3.661A9.172,9.172,0,0,1,501.735,1138.755Z" transform="translate(-481.6 -1091.346)"/>
      </g>
      <g id="Group_1121" data-name="Group 1121" transform="translate(518.589 1134.708)">
        <path id="Path_693" data-name="Path 693" class="cls-4" d="M516.079,1115.6l4.21,8.054,9.152,1.281-6.59,6.223,1.464,8.786-8.237-4.21-8.237,4.21,1.647-8.786-6.59-6.223,9.152-1.281Z" transform="translate(-502.9 -1115.6)"/>
      </g>
    </g>
  </g>
</svg>
