<svg xmlns="http://www.w3.org/2000/svg" xmlns:xlink="http://www.w3.org/1999/xlink" viewBox="-2448 -452 64 64">
  <defs>
    <style>
      .cls-1 {
        clip-path: url(#clip-SAve);
      }

      .cls-2 {
        fill: #5584ff;
        fill-rule: evenodd;
      }

      .cls-3 {
        fill: #fff;
      }
    </style>
    <clipPath id="clip-SAve">
      <rect x="-2448" y="-452" width="64" height="64"/>
    </clipPath>
  </defs>
  <g id="SAve" class="cls-1">
    <rect class="cls-3" x="-2448" y="-452" width="64" height="64"/>
    <path id="Path_2521" data-name="Path 2521" class="cls-2" d="M34.333,59.933H55.667a2.133,2.133,0,0,0,0-4.267H34.333a2.133,2.133,0,1,0,0,4.267Zm38.4-32.908-8.179-7.47v5.46a8.542,8.542,0,0,1-8.533,8.533H33.978a8.541,8.541,0,0,1-8.533-8.533V17.267H17.267V72.733H72.733Zm-43.023-2.01a4.272,4.272,0,0,0,4.267,4.267H56.021a4.273,4.273,0,0,0,4.267-4.267V17.267H29.711ZM77,26.083V74.867A2.132,2.132,0,0,1,74.867,77H15.133A2.132,2.132,0,0,1,13,74.867V15.133A2.132,2.132,0,0,1,15.133,13H62.875a2.13,2.13,0,0,1,1.438.558L76.3,24.508a2.129,2.129,0,0,1,.7,1.575ZM27.933,64.2H62.067V42.867H27.933ZM64.2,38.6a2.132,2.132,0,0,1,2.133,2.133v25.6A2.132,2.132,0,0,1,64.2,68.467H25.8a2.132,2.132,0,0,1-2.133-2.133v-25.6A2.132,2.132,0,0,1,25.8,38.6Zm-32,10.667a2.132,2.132,0,0,1,2.133-2.133H55.667a2.133,2.133,0,0,1,0,4.267H34.333A2.132,2.132,0,0,1,32.2,49.267Z" transform="translate(-2461 -465)"/>
  </g>
</svg>
