<svg xmlns="http://www.w3.org/2000/svg" xmlns:xlink="http://www.w3.org/1999/xlink" viewBox="-2304 -380 64 64">
  <defs>
    <style>
      .cls-1 {
        clip-path: url(#clip-search);
      }

      .cls-2 {
        fill: #5584ff;
      }

      .cls-3 {
        fill: #fff;
      }
    </style>
    <clipPath id="clip-search">
      <rect x="-2304" y="-380" width="64" height="64"/>
    </clipPath>
  </defs>
  <g id="search" class="cls-1">
    <rect class="cls-3" x="-2304" y="-380" width="64" height="64"/>
    <path id="Path_2520" data-name="Path 2520" class="cls-2" d="M219.348,1810.256a23.186,23.186,0,0,0,15.568-5.605l19.16,19.22a2.072,2.072,0,0,0,1.6.8,3.022,3.022,0,0,0,1.6-.8,2.442,2.442,0,0,0,0-3.2l-19.16-19.221a24.109,24.109,0,0,0,5.588-15.615,24.748,24.748,0,1,0-49.5,0c.8,13.214,11.975,24.425,25.147,24.425Zm0-44.848a20.021,20.021,0,1,1-19.958,20.021,20.048,20.048,0,0,1,19.958-20.021Zm0,0" transform="translate(-2498.2 -2140.785)"/>
  </g>
</svg>
