<svg xmlns="http://www.w3.org/2000/svg" xmlns:xlink="http://www.w3.org/1999/xlink" viewBox="-2448 -308 64 64">
  <defs>
    <style>
      .cls-1 {
        clip-path: url(#clip-Star);
      }

      .cls-2 {
        fill: #fbdc5c;
      }

      .cls-3 {
        fill: #fff;
      }
    </style>
    <clipPath id="clip-Star">
      <rect x="-2448" y="-308" width="64" height="64"/>
    </clipPath>
  </defs>
  <g id="Star" class="cls-1">
    <rect class="cls-3" x="-2448" y="-308" width="64" height="64"/>
    <g id="Group_5797" data-name="Group 5797" transform="translate(-4087.059 -2866.5)">
      <g id="Group_214" data-name="Group 214" transform="translate(1639.059 2558.5)">
        <path id="Path_143" data-name="Path 143" class="cls-2" d="M1703.059,2585.568c0-.807-.808-1.212-1.616-1.615l-18.584-6.06-9.7-18.181a2.289,2.289,0,0,0-4.04,0l-9.7,18.181-18.584,5.655a3.159,3.159,0,0,0-1.616,1.616,1.778,1.778,0,0,0,.4,2.02l12.12,13.333L1646.9,2619.5c-.4.808,0,1.616.808,2.425a2.674,2.674,0,0,0,2.424.4l21.008-8.485,21.008,8.485h.808c.4,0,1.212-.4,1.616-.4.807-.4.807-1.616.807-2.425l-4.847-18.987,12.12-12.524a5.109,5.109,0,0,0,.405-2.424Zm-16.968,12.525c-.4.4-.808,1.615-.4,2.02l4.04,15.756L1671.95,2609h-1.616l-17.776,7.272,4.04-15.756a1.776,1.776,0,0,0-.4-2.02l-10.5-11.717,15.756-4.847a1.291,1.291,0,0,0,1.212-1.213l8.08-15.352,8.08,15.352,1.213,1.213,15.756,5.252C1696.594,2587.186,1686.09,2598.094,1686.09,2598.094Z" transform="translate(-1639.059 -2558.5)"/>
      </g>
    </g>
  </g>
</svg>
